Coordinates
version=1
nRows=38
nColumns=12
inDegrees=yes

Units are S.I. units (second, meters, Newtons, ...)
Angles are in degrees

endheader
time	SC_y	SC_z	SC_x	AC_y	AC_z	AC_x	GH_y	GH_z	GH_yy	EL_x	PS_y
       0.0              -32.85          8.853          3.855          63.65         -12.84         -8.037          -94.6          26.93          9.401          121.8          15.92
   0.02414              -32.85          8.851          3.862          63.65         -12.84         -8.034         -94.58          26.93          9.386          121.8          15.93
   0.04827              -32.85           8.85           3.87          63.65         -12.84         -8.031         -94.57          26.93          9.369          121.8          15.94
   0.07241              -32.85          8.848          3.878          63.65         -12.84         -8.028         -94.55          26.93          9.352          121.7          15.96
   0.09654              -32.85          8.846          3.887          63.65         -12.84         -8.025         -94.53          26.94          9.333          121.7          15.97
    0.1207              -32.85          8.844          3.896          63.65         -12.83         -8.021         -94.51          26.94          9.313          121.7          15.99
    0.1448              -32.85          8.842          3.906          63.65         -12.83         -8.017         -94.48          26.94          9.291          121.7           16.0
    0.1689              -32.85           8.84          3.916          63.65         -12.83         -8.013         -94.46          26.95          9.269          121.7          16.02
    0.1931              -32.85          8.838          3.928          63.64         -12.83         -8.008         -94.43          26.95          9.244          121.6          16.04
    0.2172              -32.86          8.835           3.94          63.64         -12.83         -8.004         -94.41          26.96          9.218          121.6          16.06
    0.2414              -32.86          8.832          3.953          63.64         -12.83         -7.998         -94.38          26.96           9.19          121.6          16.09
    0.2655              -32.86          8.829          3.967          63.64         -12.83         -7.993         -94.35          26.97          9.159          121.6          16.11
    0.2896              -32.86          8.826          3.982          63.64         -12.83         -7.987         -94.31          26.97          9.127          121.5          16.14
    0.3138              -32.86          8.823          3.998          63.64         -12.83          -7.98         -94.27          26.98          9.091          121.5          16.16
    0.3379              -32.86          8.819          4.016          63.64         -12.82         -7.973         -94.23          26.99          9.053          121.5           16.2
     0.362              -32.86          8.815          4.035          63.64         -12.82         -7.966         -94.19          26.99          9.012          121.4          16.23
    0.3862              -32.86          8.811          4.056          63.64         -12.82         -7.957         -94.14           27.0          8.967          121.4          16.27
    0.4103              -32.86          8.806          4.078          63.64         -12.82         -7.948         -94.09          27.01          8.918          121.3           16.3
    0.4344              -32.86          8.801          4.103          63.63         -12.82         -7.938         -94.04          27.02          8.864          121.3          16.35
    0.4586              -32.86          8.795           4.13          63.63         -12.81         -7.928         -93.97          27.03          8.805          121.2           16.4
    0.4827              -32.86          8.789           4.16          63.63         -12.81         -7.916         -93.91          27.04          8.741          121.2          16.45
    0.5068              -32.86          8.782          4.192          63.63         -12.81         -7.903         -93.83          27.05           8.67          121.1           16.5
     0.531              -32.86          8.774          4.229          63.63          -12.8         -7.888         -93.75          27.06          8.592          121.0          16.57
    0.5551              -32.86          8.766          4.269          63.62          -12.8         -7.872         -93.66          27.08          8.505          120.9          16.64
    0.5792              -32.86          8.757          4.313          63.62          -12.8         -7.855         -93.56           27.1          8.409          120.8          16.71
    0.6034              -32.86          8.746          4.363          63.62         -12.79         -7.835         -93.45          27.11          8.301          120.7           16.8
    0.6275              -32.86          8.735          4.418          63.62         -12.79         -7.813         -93.32          27.13           8.18          120.6           16.9
    0.6516              -32.86          8.722          4.481          63.61         -12.78         -7.788         -93.18          27.16          8.045          120.5          17.01
    0.6758              -32.86          8.707          4.552          63.61         -12.78         -7.759         -93.02          27.18          7.891          120.3          17.13
    0.6999              -32.86           8.69          4.632           63.6         -12.77         -7.727         -92.83          27.21          7.717          120.2          17.27
    0.7241              -32.86          8.671          4.724           63.6         -12.76         -7.691         -92.63          27.25          7.519          120.0          17.43
    0.7482              -32.87          8.649          4.829          63.59         -12.75         -7.649         -92.39          27.29          7.291          119.8          17.61
    0.7723              -32.87          8.623           4.95          63.59         -12.74         -7.601         -92.11          27.33          7.028          119.5          17.82
    0.7965              -32.87          8.594          5.091          63.58         -12.73         -7.544         -91.79          27.38          6.722          119.2          18.07
    0.8206              -32.87          8.559          5.256          63.57         -12.71         -7.478         -91.41          27.44          6.364          118.9          18.36
    0.8447              -32.87          8.518          5.451          63.56          -12.7         -7.401         -90.97          27.52          5.942          118.5           18.7
    0.8689              -32.88           8.47          5.682          63.54         -12.67         -7.309         -90.45           27.6          5.441          118.0           19.1
     0.893              -32.88          8.412          5.959          63.53         -12.65         -7.198         -89.82           27.7           4.84          117.4          19.58
